<svg width="24" height="24" viewBox="0 0 24 24" fill="none" xmlns="http://www.w3.org/2000/svg">
<path d="M12 3.66667C16.595 3.66667 20.3333 7.405 20.3333 12C20.3333 16.595 16.595 20.3333 12 20.3333C7.405 20.3333 3.66667 16.595 3.66667 12C3.66667 7.405 7.405 3.66667 12 3.66667ZM12 2C6.4775 2 2 6.4775 2 12C2 17.5225 6.4775 22 12 22C17.5225 22 22 17.5225 22 12C22 6.4775 17.5225 2 12 2ZM12 17V15.7408H11.5833V17H10.75V15.7408H8.68L8.88833 14.5H9.3375C9.70583 14.5 9.91667 14.1458 9.91667 13.7883V10.085C9.91667 9.73833 9.715 9.5 9.3475 9.5H8.66667V8.25H10.75V7H11.5833V8.25H12V7H12.8333V8.27167C14.6317 8.3325 15.3433 9.01417 15.5475 9.78167C15.7892 10.69 15.19 11.4525 14.6758 11.6383C15.3008 11.7983 16.1667 12.26 16.1667 13.3267C16.1667 14.7783 15.0467 15.75 12.8333 15.75V17H12ZM11.5833 12.4142V14.5C13.2367 14.5 14.37 14.3433 14.37 13.4517C14.37 12.495 13.1458 12.4142 11.5833 12.4142ZM11.5833 11.5833C12.5042 11.5833 13.9075 11.5183 13.9075 10.5417C13.9075 9.70833 13.0417 9.5 11.5833 9.5V11.5833Z" fill="black"/>
</svg>
