<svg width="24" height="24" viewBox="0 0 24 24" fill="none" xmlns="http://www.w3.org/2000/svg">
<path fill-rule="evenodd" clip-rule="evenodd" d="M12 4C7.58011 4 4 7.67017 4 12.2013C4 15.8261 6.29343 18.8972 9.47084 19.9846C9.86863 20.0602 10.016 19.8084 10.016 19.5869C10.016 19.3906 10.011 18.877 10.0061 18.1923C7.78146 18.6857 7.31001 17.0948 7.31001 17.0948C6.94659 16.1483 6.42112 15.8916 6.42112 15.8916C5.69429 15.3831 6.47514 15.3931 6.47514 15.3931C7.27563 15.4536 7.70288 16.2389 7.70288 16.2389C8.41498 17.4925 9.57397 17.1301 10.0307 16.9186C10.1044 16.39 10.3106 16.0275 10.5365 15.8211C8.76366 15.6197 6.89748 14.9149 6.89748 11.7733C6.89748 10.8772 7.20688 10.1472 7.72253 9.57323C7.63904 9.36177 7.36403 8.53108 7.79619 7.40334C7.79619 7.40334 8.469 7.18182 9.99632 8.24411C10.6347 8.06287 11.3174 7.97224 12 7.96721C12.6777 7.97224 13.3653 8.06287 14.0037 8.24411C15.531 7.18182 16.2038 7.40334 16.2038 7.40334C16.6409 8.53108 16.3659 9.36681 16.2824 9.57323C16.7931 10.1472 17.1025 10.8772 17.1025 11.7733C17.1025 14.9249 15.2314 15.6147 13.4487 15.8211C13.7336 16.0728 13.9939 16.5763 13.9939 17.3415C13.9939 18.439 13.984 19.3201 13.984 19.5919C13.984 19.8135 14.1265 20.0652 14.5341 19.9846C17.7115 18.8972 20 15.8261 20 12.2063C20 7.67017 16.4199 4 12 4Z" fill="black"/>
</svg>
