<svg width="24" height="24" viewBox="0 0 24 24" fill="none" xmlns="http://www.w3.org/2000/svg">
<path d="M15.2727 6.90002H13.8182V8.26366H15.2727C17.0909 8.26366 18.6364 9.80912 18.6364 11.6273C18.6364 13.4455 17.0909 14.9909 15.2727 14.9909H13.8182V16.3546H15.2727C17.8182 16.3546 20 14.2637 20 11.6273C20 8.99093 17.9091 6.90002 15.2727 6.90002ZM5.36364 11.6273C5.36364 9.80912 6.90909 8.26366 8.72727 8.26366H10.1818V6.90002H8.72727C6.09091 6.90002 4 8.99093 4 11.6273C4 14.2637 6.09091 16.3546 8.72727 16.3546H10.1818V14.9909H8.72727C6.90909 14.9909 5.36364 13.4455 5.36364 11.6273ZM9.54546 12.4455H14.3636V11.0818H9.54546V12.4455Z" fill="black"/>
</svg>
