<svg width="24" height="24" viewBox="0 0 24 24" fill="none" xmlns="http://www.w3.org/2000/svg">
<path d="M12.5279 20C13.9086 20 15.6684 19.6179 16.5076 19.2867L16.1286 18.1147C15.6412 18.2676 14.071 18.7771 12.582 18.7771C7.95262 18.7771 5.489 16.3312 5.489 12C5.489 7.74523 8.00677 5.19745 12.2572 5.19745C16.5618 5.19745 18.5922 8.05095 18.5922 10.9044C18.5922 13.8089 18.2674 15.1083 16.8867 15.1083C16.0745 15.1083 15.6412 14.4714 15.6412 13.758V8H14.2064V8.71338H14.1252C13.9357 8.15287 12.8798 7.66879 11.5262 7.79618C9.49577 8 7.95262 9.57962 7.95262 11.8726C7.95262 14.293 9.1709 16.1529 11.5262 16.2293C13.0693 16.2803 13.8816 15.5668 14.2064 14.828H14.2876C14.45 15.9236 15.912 16.3057 16.8596 16.3057C19.7292 16.3057 20 13.4012 20 10.93C20 7.43949 17.401 4 12.3384 4C7.11337 4 4 6.98089 4 11.9491C4 17.0956 7.00508 20 12.5279 20ZM11.7428 14.93C9.98308 14.93 9.36041 13.4268 9.36041 11.7962C9.36041 10.3185 10.2538 9.04459 11.797 9.04459C13.4213 9.04459 14.2876 9.65605 14.2876 11.7962C14.2876 13.9108 13.5567 14.93 11.7428 14.93Z" fill="black"/>
</svg>
