<svg width="24" height="24" viewBox="0 0 24 24" fill="none" xmlns="http://www.w3.org/2000/svg">
<path fill-rule="evenodd" clip-rule="evenodd" d="M17.8566 8.92493C16.9456 12.8377 14.1667 13.5 10.434 13.5L9.3086 19.5H11.3691C11.7444 19.5 11.9017 19.2444 11.9709 18.8844C12.4847 15.6361 12.4125 16.1677 12.4591 15.6592C12.5035 15.3757 12.7487 15 13.0368 15C15.7736 15 17.5888 14.2089 18.1432 11.3687C18.3403 10.3584 18.2756 9.57893 17.8566 8.92493ZM9.35073 13.3949L8.50895 18H5.90159C5.65485 18 5.46603 17.6984 5.50515 17.4554L7.45201 5.06323C7.50316 4.73923 7.78376 4.5 8.11326 4.5H12.7886C15.5569 4.5 17.421 5.5509 16.99 8.29065C16.2355 13.1701 12.0529 12.75 10.1496 12.75C9.82014 12.75 9.40264 13.0709 9.35073 13.3949Z" fill="black"/>
</svg>
