<svg width="24" height="24" viewBox="0 0 24 24" fill="none" xmlns="http://www.w3.org/2000/svg">
    <path d="M15.7279 3.99997C15.4627 3.99997 15.2083 3.89461 15.0208 3.70708L12.7071 1.39336C12.3165 1.00283 11.6834 1.00283 11.2929 1.39336L8.97913 3.70708C8.79159 3.89461 8.53724 3.99997 8.27202 3.99997H4.99996C4.44767 3.99997 3.99996 4.44769 3.99996 4.99997V8.27204C3.99996 8.53725 3.8946 8.79161 3.70707 8.97914L1.39336 11.2929C1.00283 11.6834 1.00283 12.3165 1.39336 12.7071L3.70707 15.0208C3.8946 15.2083 3.99996 15.4627 3.99996 15.7279V19C3.99996 19.5523 4.44767 20 4.99996 20H8.27205C8.53727 20 8.79162 20.1053 8.97916 20.2929L11.2929 22.6066C11.6834 22.9971 12.3165 22.9971 12.7071 22.6066L15.0208 20.2929C15.2083 20.1053 15.4627 20 15.7279 20H19C19.5522 20 20 19.5523 20 19V15.7279C20 15.4627 20.1053 15.2083 20.2929 15.0208L22.6066 12.7071C22.9971 12.3165 22.9971 11.6834 22.6066 11.2929L20.2929 8.97914C20.1053 8.79161 20 8.53725 20 8.27204V4.99997C20 4.44769 19.5522 3.99997 19 3.99997H15.7279Z" fill="#4678EB"/>
    <path fill-rule="evenodd" clip-rule="evenodd" d="M16.7475 9.0221L11.0334 16.7069L7.32056 13.9463L8.36475 12.5419L10.6732 14.2584L15.3431 7.97791L16.7475 9.0221Z" fill="white"/>
</svg>