<svg width="24" height="24" viewBox="0 0 24 24" fill="none" xmlns="http://www.w3.org/2000/svg">
    <path d="M4 20L5.13003 15.8913C4.43272 14.6887 4.06631 13.3253 4.06698 11.9273C4.06899 7.55667 7.64264 4 12.0335 4C14.1643 4.00067 16.1644 4.82667 17.6689 6.32533C19.1727 7.824 20.0007 9.816 20 11.9347C19.998 16.306 16.4243 19.8627 12.0335 19.8627C10.7005 19.862 9.38692 19.5293 8.22339 18.8973L4 20ZM8.41899 17.462C9.54166 18.1253 10.6134 18.5227 12.0308 18.5233C15.6801 18.5233 18.6529 15.5673 18.6549 11.9333C18.6563 8.292 15.6976 5.34 12.0362 5.33867C8.38416 5.33867 5.41338 8.29467 5.41204 11.928C5.41137 13.4113 5.84811 14.522 6.5816 15.684L5.91242 18.116L8.41899 17.462ZM16.0466 13.8193C15.997 13.7367 15.8644 13.6873 15.6647 13.588C15.4658 13.4887 14.4871 13.0093 14.3043 12.9433C14.1221 12.8773 13.9894 12.844 13.8561 13.0427C13.7235 13.2407 13.3417 13.6873 13.2258 13.8193C13.1099 13.9513 12.9934 13.968 12.7944 13.8687C12.5955 13.7693 11.9538 13.5607 11.1935 12.8853C10.602 12.36 10.2021 11.7113 10.0862 11.5127C9.97036 11.3147 10.0742 11.2073 10.1733 11.1087C10.2631 11.02 10.3723 10.8773 10.4721 10.7613C10.5732 10.6467 10.606 10.564 10.673 10.4313C10.7393 10.2993 10.7065 10.1833 10.6563 10.084C10.606 9.98533 10.2082 9.01 10.0427 8.61333C9.8806 8.22733 9.71649 8.27933 9.59457 8.27333L9.21276 8.26667C9.08013 8.26667 8.86444 8.316 8.68224 8.51467C8.50004 8.71333 7.9856 9.192 7.9856 10.1673C7.9856 11.1427 8.69899 12.0847 8.79812 12.2167C8.89793 12.3487 10.2015 14.35 12.1983 15.208C12.6732 15.412 13.0443 15.534 13.333 15.6253C13.8099 15.776 14.244 15.7547 14.587 15.704C14.9694 15.6473 15.7645 15.2247 15.9307 14.762C16.0968 14.2987 16.0968 13.902 16.0466 13.8193Z" fill="black"/>
</svg>
